<svg xmlns="http://www.w3.org/2000/svg" width="502.125" height="447.023" viewBox="0 0 502.125 447.023">
  <g id="Group_15" data-name="Group 15" transform="translate(-423.116 -321.676)">
    <path id="Path_2" data-name="Path 2" d="M2457.99,765.471s-172.189-72.061-71.028-116.2-38.625-119.458,0-159.278,50.428,20.5,154.5,0S2710.326,336.464,2775.084,351.3c39.891,9.141,93.155,195.673,80.163,313.415-8.1,73.365-80.163,100.753-80.163,100.753Z" transform="translate(-1932 3)" fill="#484ea2" opacity="0.12"/>
    <path id="Path_3" data-name="Path 3" d="M2457.482,684.591c-79.813-23.9-159.382-52.092-76.172-88.4s-31.771-98.26,0-131.014,41.48,16.864,127.084,0,138.9-126.283,192.167-114.077c32.812,7.519,126.708,174.427,65.938,257.8S2537.295,708.487,2457.482,684.591Z" transform="translate(-1882.449 66.849)" fill="#484ea2" opacity="0.12"/>
    <g id="Group_12" data-name="Group 12" transform="matrix(0.978, 0.208, -0.208, 0.978, 93.343, -129.62)">
      <circle id="Ellipse_13" data-name="Ellipse 13" cx="66.5" cy="66.5" r="66.5" transform="translate(731 306)" fill="#f6eaab" opacity="0.28"/>
      <circle id="Ellipse_12" data-name="Ellipse 12" cx="47.5" cy="47.5" r="47.5" transform="translate(746 340)" fill="#f6eaab" opacity="0.28"/>
      <circle id="Ellipse_11" data-name="Ellipse 11" cx="34.5" cy="34.5" r="34.5" transform="translate(755 360)" fill="#f6eaab" opacity="0.28"/>
      <g id="Group_11" data-name="Group 11">
        <g id="Group_9" data-name="Group 9" transform="translate(166.333 48.597)">
          <path id="Path_54" data-name="Path 54" d="M644.953,360.724a25.347,25.347,0,1,0-44.155,4.439c-3.012,7.8-.182,16.263,6.508,19.125s14.765-.938,18.325-8.5A25.326,25.326,0,0,0,644.953,360.724Z" fill="#ffd600"/>
          <path id="Path_55" data-name="Path 55" d="M610.984,375.638l5.827-13.622-1.376-12.941a7,7,0,0,0,1.7,1.188c1.21.6,1.532.292,2.778.8,1.508.62,1.391,1.207,2.872,1.641.782.228.967.109,1.949.373a9.314,9.314,0,0,1,2.274.945l-8.74,6.735" fill="none" stroke="#ec980c" stroke-linecap="round" stroke-linejoin="round" stroke-width="0.75"/>
          <g id="Group_8" data-name="Group 8">
            <path id="Path_56" data-name="Path 56" d="M612.9,394.836c-2.166.358-4.431-.608-8.962-2.54-4.586-1.956-6.879-2.934-8.128-4.769-2.536-3.727-.574-8.828,1.4-13.431a4.01,4.01,0,0,1,5.249-2.105l17.09,7.31a4.011,4.011,0,0,1,2.1,5.25C619.683,389.154,617.354,394.1,612.9,394.836Z" fill="#c9c9c9"/>
            <path id="Path_57" data-name="Path 57" d="M620.945,386.159a75.326,75.326,0,0,1-23.7-12.141" fill="none" stroke="#373737" stroke-linecap="round" stroke-miterlimit="10" stroke-width="1"/>
            <path id="Path_58" data-name="Path 58" d="M619.4,389.266a92.3,92.3,0,0,1-23.459-12.019" fill="none" stroke="#373737" stroke-linecap="round" stroke-miterlimit="10" stroke-width="1"/>
            <path id="Path_59" data-name="Path 59" d="M617.4,392.153a127.106,127.106,0,0,1-11.612-5.243c-4.03-2.069-7.649-4.2-10.858-6.27" fill="none" stroke="#373737" stroke-linecap="round" stroke-miterlimit="10" stroke-width="1"/>
            <path id="Path_60" data-name="Path 60" d="M614.557,394.329a102.765,102.765,0,0,1-19.905-10.2" fill="none" stroke="#373737" stroke-linecap="round" stroke-miterlimit="10" stroke-width="1"/>
          </g>
          <path id="Path_61" data-name="Path 61" d="M639.386,344.719c-.627.5-3.493-4.462-10.536-7.842-7.174-3.443-13.007-2.523-13.023-3.388-.018-.99,7.593-3.75,14.24-.8C637.143,335.827,640.148,344.115,639.386,344.719Z" fill="#fff"/>
        </g>
        <path id="Path_73" data-name="Path 73" d="M2699.789,367.7a35.81,35.81,0,0,1,0-8.663c.559-5.217,3.423-6.125,5.124-5.5s1.84,3.61,0,6.8A77.625,77.625,0,0,1,2699.789,367.7Z" transform="translate(-1896.839 -1.516)" fill="#ffd600"/>
        <path id="Path_76" data-name="Path 76" d="M2699.789,367.7a35.81,35.81,0,0,1,0-8.663c.559-5.217,3.423-6.125,5.124-5.5s1.84,3.61,0,6.8A77.625,77.625,0,0,1,2699.789,367.7Z" transform="translate(-466.816 2812.273) rotate(-71)" fill="#ffd600"/>
        <path id="Path_77" data-name="Path 77" d="M.248,0a35.811,35.811,0,0,0,0,8.663c.559,5.217,3.423,6.125,5.124,5.5s1.84-3.61,0-6.8A77.624,77.624,0,0,0,.248,0Z" transform="translate(822.16 404.578) rotate(-69)" fill="#ffd600"/>
        <path id="Path_75" data-name="Path 75" d="M2699.709,363.1a24.316,24.316,0,0,1,0-5.883c.38-3.543,2.325-4.159,3.479-3.732s1.25,2.451,0,4.618A52.726,52.726,0,0,1,2699.709,363.1Z" transform="translate(-833.244 -1781.151) rotate(45)" fill="#ffd600"/>
        <path id="Path_74" data-name="Path 74" d="M2699.709,363.094a24.289,24.289,0,0,1,0-5.878c.379-3.539,2.323-4.156,3.476-3.729s1.249,2.449,0,4.614A52.632,52.632,0,0,1,2699.709,363.094Z" transform="matrix(0.799, -0.602, 0.602, 0.799, -1598.302, 1699.915)" fill="#ffd600"/>
        <path id="Path_78" data-name="Path 78" d="M2699.709,363.094a24.289,24.289,0,0,1,0-5.878c.379-3.539,2.323-4.156,3.476-3.729s1.249,2.449,0,4.614A52.632,52.632,0,0,1,2699.709,363.094Z" transform="matrix(-0.454, -0.891, 0.891, -0.454, 1657.463, 2969.986)" fill="#ffd600"/>
        <path id="Path_79" data-name="Path 79" d="M2699.709,363.094a24.289,24.289,0,0,1,0-5.878c.379-3.539,2.323-4.156,3.476-3.729s1.249,2.449,0,4.614A52.632,52.632,0,0,1,2699.709,363.094Z" transform="translate(2079.754 -1993.333) rotate(110)" fill="#ffd600"/>
      </g>
    </g>
    <g id="Another_Character" data-name="Another Character" transform="translate(926.984 172.671)">
      <path id="Path_124" data-name="Path 124" d="M-138.13,592.612c.486.46-1.049,2.907-1.9,4.069a15.512,15.512,0,0,1-3.76,3.633l-.94-3.507C-139.846,592.81-138.461,592.3-138.13,592.612Z" transform="translate(-31.336 -36.373)" fill="#8b2b8b"/>
      <path id="Path_125" data-name="Path 125" d="M-285.3,611.648c-.289.5,2.891,2.924,5.141,4.417a41.627,41.627,0,0,0,4.736,2.712l.362-4.158c-.957-.265-2.391-.673-4.122-1.211C-283.556,612.047-285.113,611.32-285.3,611.648Z" transform="translate(-12.739 -38.891)" fill="#8b2b8b"/>
      <path id="Path_126" data-name="Path 126" d="M-146.3,506.7a191.389,191.389,0,0,0,15.1,18.412,179.149,179.149,0,0,0,20.063,19.217c17.146,13.823,19.409,15.537,22.759,22.533,3.427,7.156,4.457,9.034,5.607,9.895a3.026,3.026,0,0,0,.6.368c4.09,1.923,10.912-5.6,12.865-7.849a302.924,302.924,0,0,1-51.83-78.079Z" transform="translate(-31.129 -22.969)" fill="#fab68c"/>
      <path id="Path_127" data-name="Path 127" d="M-148.884,628.325l-132.079.415a51.783,51.783,0,0,0,5.133-16.773c1.631-13.195-3.11-18.889-1.952-24.513,4.645-22.565,96.344-34.039,111.459-6.352,2.512,4.6,2.611,9.735,9.846,28.784C-153.468,617.807-150.725,624.185-148.884,628.325Z" transform="translate(-13.316 -32.712)" fill="#1d3b6c"/>
      <path id="Path_128" data-name="Path 128" d="M-144.132,510.668a61.479,61.479,0,0,1,8.426-3.28c6.668-2.038,10.416-1.919,14.138-5.073a15.122,15.122,0,0,0,3.428-4.221l-16.643-.2Z" transform="translate(-31.415 -23.855)" fill="#f69866" opacity="0.41"/>
      <path id="Path_129" data-name="Path 129" d="M-282.341,448.848c-5.605,17.771-10.864,33.329-15.393,46.267-5.163,14.769-8.608,23.906-15.888,34.431,0,0-1.206,2.273-7.836,10.725-.512.659-1.059,1.354-1.649,2.091a.094.094,0,0,0-.035.043c-1.874,2.352-4.208,5.2-7.87,6.274a1,1,0,0,1-.182.052c-.121.035-.252.061-.382.1,0,0-.069.017-.182.035a.558.558,0,0,1-.113.035,11.424,11.424,0,0,1-3.61.13c-2.421-.417-5.588-2-9.528-6.334-.8-.876-1.631-1.866-2.49-2.985a2.13,2.13,0,0,0-.147-.191c-.017-.017-.035-.043-.061-.069-.026-.043-.061-.069-.078-.1-.408-.529-.807-1.059-1.223-1.623a.74.74,0,0,0-.078-.122l-.061-.1c-6.547-10.31-13.016-30.474-13.016-30.474-1.635-5.09-3.594-11.436-5.684-18.808l11.759-.716c1.313,2.182,2.76,4.418,4.356,6.681A111.228,111.228,0,0,0-335,512.964c5.415-8.99,9.684-16.331,12.469-21.164,11.471-19.966,14.326-26.318,22.127-32.9A55.241,55.241,0,0,1-282.341,448.848Z" transform="translate(-1.823 -17.367)" fill="#fab68c"/>
      <path id="Path_130" data-name="Path 130" d="M-287.335,484.128c-.009.217-.026.434-.035.651-.686,13.684.121,21.268-.59,25.78-.373,2.386-1.171,3.913-2.846,5.024-9.779,6.491-36.358-9.389-36.115-22.457.061-3.558,2.065-4.261,8.348-14.317,7.671-12.27,6.942-14.9,12.148-22.665,3.749-5.588,9.623-12.435,14.725-16.417,3.3-2.568,6.282-3.948,8.165-3.011C-278.874,439.041-285.686,453.219-287.335,484.128Z" transform="translate(-7.236 -15.723)" fill="#973392"/>
      <path id="Path_131" data-name="Path 131" d="M-365.084,498.9a2.8,2.8,0,0,0,.285.972c.965,1.888,3.966,2.08,5.64,2.242a52.842,52.842,0,0,1,10.353,2.142,14.279,14.279,0,0,0-1.133-1.473,15.329,15.329,0,0,0-6.038-4.14Z" transform="translate(-2.189 -23.954)" fill="#f69866" opacity="0.58"/>
      <path id="Path_132" data-name="Path 132" d="M-372.265,424.305a1.868,1.868,0,0,1,.469-.875,1.9,1.9,0,0,1,1.067-.553l47.236,7.829a2.244,2.244,0,0,1,1.04.68,2.132,2.132,0,0,1,.48,1.225c.15,2.62,4.95,56.623,5.691,64.519v.012a1.743,1.743,0,0,1-.137,1.082c-.456.9-1.927.939-2.458.961-3.184.128-40.577-8.043-45.839-9.2a1.7,1.7,0,0,1-.9-.444,1.725,1.725,0,0,1-.51-1.147Z" transform="translate(-1.239 -13.932)" fill="#b7b7b7"/>
      <path id="Path_133" data-name="Path 133" d="M-370.159,420.654l48.745,8.212a3.036,3.036,0,0,1,1.157.711,3.061,3.061,0,0,1,.785,1.322l5.353,65.238a4.149,4.149,0,0,1-2.169,2.522,4.038,4.038,0,0,1-2.679.212,2.4,2.4,0,0,0,2.476-.823,1.637,1.637,0,0,0,.243-.757q-2.887-32.627-5.775-65.254a2.286,2.286,0,0,0-.534-.971,2.274,2.274,0,0,0-.881-.586l-47.273-7.891a1.838,1.838,0,0,0-.937.4,1.855,1.855,0,0,0-.627,1.077,3.073,3.073,0,0,1,.066-1.107A3.743,3.743,0,0,1-370.159,420.654Z" transform="translate(-1.235 -13.638)" fill="#868586"/>
      <g id="Group_14" data-name="Group 14" transform="translate(-354.236 433.898)">
        <path id="Path_134" data-name="Path 134" d="M-346.546,453.018h0a1.869,1.869,0,0,1,2.127-.969,3.209,3.209,0,0,1,2.458,2.866,2.441,2.441,0,0,1,.786,0,3.261,3.261,0,0,1,2.6,3.146,2.371,2.371,0,0,1-.962,1.985h0a2.808,2.808,0,0,1,.972,2.085,2.269,2.269,0,0,1-2.358,2.319,2.572,2.572,0,0,1-.72-.125,1.908,1.908,0,0,1-1.991,1.907,2.419,2.419,0,0,1-2-1.09h0l-.151-1.99-.28-3.716-.3-4.007-.183-2.415Z" transform="translate(349.596 -451.683)" fill="#73c495" fill-rule="evenodd"/>
        <path id="Path_135" data-name="Path 135" d="M-346.865,452.746a2,2,0,0,1,.966-.924,2.314,2.314,0,0,1,1.416-.135,3.417,3.417,0,0,1,1.913,1.184,3.58,3.58,0,0,1,.791,1.676c.037,0,.075,0,.113,0a2.776,2.776,0,0,1,.436.039,3.382,3.382,0,0,1,2.046,1.245,3.573,3.573,0,0,1,.8,2.216,2.846,2.846,0,0,1-.276,1.248,2.439,2.439,0,0,1-.554.743,3.163,3.163,0,0,1,.559.834,2.962,2.962,0,0,1,.272,1.231,2.548,2.548,0,0,1-.742,1.83,2.5,2.5,0,0,1-1.84.711,2.755,2.755,0,0,1-.4-.039c-.035-.005-.069-.012-.1-.019a2.034,2.034,0,0,1-.612,1.222,2.275,2.275,0,0,1-1.593.619,2.669,2.669,0,0,1-1.256-.318,2.711,2.711,0,0,1-.97-.872.259.259,0,0,1-.058-.141l-.954-12.179a.265.265,0,0,1,.039-.168Zm1.315-.321a1.563,1.563,0,0,0-.728.679l.869,11.936a2.138,2.138,0,0,0,.731.652,2.088,2.088,0,0,0,.987.257,1.785,1.785,0,0,0,1.262-.482,1.608,1.608,0,0,0,.5-1.18.232.232,0,0,1,.008-.084.232.232,0,0,1,.3-.151,2.345,2.345,0,0,0,.323.082,2.236,2.236,0,0,0,.327.034,2.056,2.056,0,0,0,1.523-.581,2.088,2.088,0,0,0,.611-1.515,2.425,2.425,0,0,0-.23-1.015,2.612,2.612,0,0,0-.636-.851.294.294,0,0,1-.117-.226h0a.229.229,0,0,1,.094-.194,1.987,1.987,0,0,0,.644-.764,2.336,2.336,0,0,0,.226-1.034,2.939,2.939,0,0,0-.673-1.823,2.77,2.77,0,0,0-1.682-1.007,2.446,2.446,0,0,0-.357-.03,2.12,2.12,0,0,0-.349.029h0a.25.25,0,0,1-.072,0,.356.356,0,0,1-.285-.326,2.746,2.746,0,0,0-.667-1.6,2.661,2.661,0,0,0-1.5-.913,1.81,1.81,0,0,0-1.1.111Z" transform="translate(349.643 -451.634)" fill="#5c2c86"/>
        <path id="Path_136" data-name="Path 136" d="M-339.116,460.271a.271.271,0,0,1-.007-.369.241.241,0,0,1,.35.038,1.87,1.87,0,0,1,.333.555,1.755,1.755,0,0,1,.12.613,1.526,1.526,0,0,1-.107.586,1.365,1.365,0,0,1-.316.477.237.237,0,0,1-.341-.026.257.257,0,0,1-.006-.356.932.932,0,0,0,.215-.325,1.036,1.036,0,0,0,.071-.4,1.179,1.179,0,0,0-.083-.419,1.282,1.282,0,0,0-.229-.374Z" transform="translate(348.623 -452.72)" fill="#5c2c86"/>
        <path id="Path_137" data-name="Path 137" d="M-340.884,461.578a.293.293,0,0,1,.26.278.223.223,0,0,1-.244.236,1.349,1.349,0,0,1-.864-.423,1.412,1.412,0,0,1-.4-.909,1.1,1.1,0,0,1,.328-.856,1.054,1.054,0,0,1,.857-.276.311.311,0,0,1,.266.3.224.224,0,0,1-.249.239.606.606,0,0,0-.489.16.631.631,0,0,0-.187.489.806.806,0,0,0,.223.521.776.776,0,0,0,.5.247Z" transform="translate(349.012 -452.69)" fill="#5c2c86"/>
        <path id="Path_138" data-name="Path 138" d="M-346.662,456.243a.389.389,0,0,1,.34.322.233.233,0,0,1-.253.279,1.317,1.317,0,0,0-1.2.785,3.847,3.847,0,0,0-.377,2.2,4.728,4.728,0,0,0,.764,2.214,1.97,1.97,0,0,0,1.277.929.312.312,0,0,1,.279.293.236.236,0,0,1-.279.227,2.618,2.618,0,0,1-1.756-1.2,5.353,5.353,0,0,1-.9-2.517,4.342,4.342,0,0,1,.43-2.516,1.765,1.765,0,0,1,1.673-1.016Z" transform="translate(349.893 -452.243)" fill="#5c2c86"/>
        <path id="Path_139" data-name="Path 139" d="M-346.479,458.384a.367.367,0,0,1,.315.323.232.232,0,0,1-.272.254l-1.868-.206a.392.392,0,0,1-.338-.331.238.238,0,0,1,.283-.262l1.88.222Z" transform="translate(349.873 -452.497)" fill="#5c2c86"/>
        <path id="Path_140" data-name="Path 140" d="M-346.375,460.22a.349.349,0,0,1,.31.307.233.233,0,0,1-.267.253l-2.094-.188a.375.375,0,0,1-.335-.316.238.238,0,0,1,.279-.26l2.107.2Z" transform="translate(349.889 -452.742)" fill="#5c2c86"/>
        <path id="Path_141" data-name="Path 141" d="M-346.195,462.007a.335.335,0,0,1,.3.293.234.234,0,0,1-.264.25l-1.806-.126a.355.355,0,0,1-.326-.3.238.238,0,0,1,.274-.258l1.817.14Z" transform="translate(349.826 -452.987)" fill="#5c2c86"/>
        <path id="Path_142" data-name="Path 142" d="M-346.31,453.165a.265.265,0,0,1-.406.056.378.378,0,0,1-.161-.449,1.987,1.987,0,0,1,.975-.95,2.329,2.329,0,0,1,1.419-.136,3.42,3.42,0,0,1,1.913,1.184,3.5,3.5,0,0,1,.831,2.034.222.222,0,0,1-.253.25.354.354,0,0,1-.286-.326,2.751,2.751,0,0,0-.666-1.6,2.668,2.668,0,0,0-1.5-.913,1.823,1.823,0,0,0-1.1.112,1.566,1.566,0,0,0-.758.739Z" transform="translate(349.643 -451.634)" fill="#5c2c86"/>
        <path id="Path_143" data-name="Path 143" d="M-341.651,455.7a.315.315,0,0,1-.371-.188.258.258,0,0,1,.109-.369,2.454,2.454,0,0,1,.647-.142,2.7,2.7,0,0,1,.677.029,3.382,3.382,0,0,1,2.046,1.245,3.573,3.573,0,0,1,.8,2.216,2.846,2.846,0,0,1-.278,1.25,2.41,2.41,0,0,1-.777.922.243.243,0,0,1-.337-.081.253.253,0,0,1,.043-.351,1.972,1.972,0,0,0,.642-.763,2.336,2.336,0,0,0,.227-1.036,2.939,2.939,0,0,0-.673-1.823,2.77,2.77,0,0,0-1.682-1.007,2.239,2.239,0,0,0-.553-.02,2.02,2.02,0,0,0-.526.118Z" transform="translate(349.002 -452.077)" fill="#5c2c86"/>
        <path id="Path_144" data-name="Path 144" d="M-346.9,453.069a.233.233,0,0,1,.286-.26.426.426,0,0,1,.331.371l.445,6.115,3.333.324a.311.311,0,0,1,.272.291.226.226,0,0,1-.252.24l-3.6-.323v0a.349.349,0,0,1-.311-.3l-.506-6.451Z" transform="translate(349.643 -451.788)" fill="#5c2c86"/>
        <path id="Path_145" data-name="Path 145" d="M-343.038,455.5a.325.325,0,0,1-.388-.178.264.264,0,0,1,.093-.383,1.3,1.3,0,0,1,.365-.094,1.493,1.493,0,0,1,.392.013,1.881,1.881,0,0,1,1.034.569,2.039,2.039,0,0,1,.54,1.063.229.229,0,0,1-.213.285.333.333,0,0,1-.31-.28,1.321,1.321,0,0,0-.355-.69,1.207,1.207,0,0,0-.671-.361.952.952,0,0,0-.253-.006.822.822,0,0,0-.235.061Z" transform="translate(349.189 -452.058)" fill="#5c2c86"/>
        <path id="Path_146" data-name="Path 146" d="M-346.311,456.839a.39.39,0,0,1-.325-.34.233.233,0,0,1,.279-.259l1.151.165a.376.376,0,0,1,.31.335.231.231,0,0,1-.272.253l-1.143-.154Z" transform="translate(349.608 -452.243)" fill="#5c2c86"/>
        <path id="Path_147" data-name="Path 147" d="M-345.082,454.518a.23.23,0,0,1,.277-.256.4.4,0,0,1,.312.353l.094,1.591a.229.229,0,0,1-.271.253.375.375,0,0,1-.309-.335l-.1-1.605Z" transform="translate(349.402 -451.981)" fill="#5c2c86"/>
        <path id="Path_148" data-name="Path 148" d="M-344.992,456.977a.377.377,0,0,1-.312-.334.231.231,0,0,1,.273-.254.02.02,0,0,0,.017,0h0a.019.019,0,0,0,.005-.016.23.23,0,0,1,.272-.254.377.377,0,0,1,.307.337.5.5,0,0,1-.149.406h0a.494.494,0,0,1-.413.121Z" transform="translate(349.431 -452.226)" fill="#5c2c86"/>
        <path id="Path_149" data-name="Path 149" d="M-346.927,453.855a.393.393,0,0,1,.4.259.249.249,0,0,1-.161.362l-1.879.357a.417.417,0,0,1-.426-.259.25.25,0,0,1,.162-.371l1.9-.347Z" transform="translate(349.922 -451.927)" fill="#5c2c86"/>
        <path id="Path_150" data-name="Path 150" d="M-346.717,455.71a.37.37,0,0,1,.221.4.247.247,0,0,1-.361.141c-.108-.048-.216-.1-.34-.16a3.559,3.559,0,0,1-.4-.241c-.135-.094-.283-.208-.428-.33s-.311-.272-.445-.4-.247-.253-.354-.379-.206-.26-.309-.41-.216-.329-.317-.505l-.014-.027c-.089-.157-.172-.318-.242-.474a6.672,6.672,0,0,1-.337-.978h0a.243.243,0,0,1,.228-.338.463.463,0,0,1,.413.333h0a5.988,5.988,0,0,0,.287.86c.058.132.127.268.2.4l.016.024c.089.16.184.312.273.445s.165.233.252.339.181.207.292.317.254.244.392.361.248.2.362.285a2.868,2.868,0,0,0,.314.193c.1.051.2.1.3.143Z" transform="translate(350.061 -451.683)" fill="#5c2c86"/>
        <path id="Path_151" data-name="Path 151" d="M-345.761,467.1a.225.225,0,0,1,.087-.335.3.3,0,0,1,.374.109,2.107,2.107,0,0,0,.764.706,2.1,2.1,0,0,0,.99.258,1.787,1.787,0,0,0,1.263-.482,1.607,1.607,0,0,0,.5-1.2.225.225,0,0,1,.243-.228.261.261,0,0,1,.247.252,2.051,2.051,0,0,1-.627,1.514,2.278,2.278,0,0,1-1.594.619,2.678,2.678,0,0,1-1.258-.32,2.693,2.693,0,0,1-.984-.894Z" transform="translate(349.497 -453.525)" fill="#5c2c86"/>
        <path id="Path_152" data-name="Path 152" d="M-341.479,465.57a.253.253,0,0,1-.127-.328.239.239,0,0,1,.33-.1,2.388,2.388,0,0,0,.493.187,2.278,2.278,0,0,0,.507.074,2.056,2.056,0,0,0,1.523-.581,2.088,2.088,0,0,0,.611-1.515,2.439,2.439,0,0,0-.231-1.017,2.615,2.615,0,0,0-.652-.864.271.271,0,0,1-.053-.359.226.226,0,0,1,.337-.018,3.158,3.158,0,0,1,.786,1.055,2.975,2.975,0,0,1,.273,1.233,2.548,2.548,0,0,1-.742,1.83,2.5,2.5,0,0,1-1.84.711,2.83,2.83,0,0,1-.616-.085,3.053,3.053,0,0,1-.6-.223Z" transform="translate(348.945 -452.87)" fill="#5c2c86"/>
        <path id="Path_153" data-name="Path 153" d="M-345.329,466.242a.233.233,0,0,1-.251.243.291.291,0,0,1-.291-.252l-.449-5.728a.232.232,0,0,1,.268-.253.349.349,0,0,1,.309.306l.414,5.684Z" transform="translate(349.566 -452.774)" fill="#5c2c86"/>
        <path id="Path_154" data-name="Path 154" d="M-342.766,466.021a.253.253,0,0,1-.12-.337.248.248,0,0,1,.343-.086,1.092,1.092,0,0,0,.223.09,1.014,1.014,0,0,0,.233.036.874.874,0,0,0,.594-.2.812.812,0,0,0,.287-.536.226.226,0,0,1,.274-.194.267.267,0,0,1,.216.286,1.252,1.252,0,0,1-.442.821,1.347,1.347,0,0,1-.909.307,1.569,1.569,0,0,1-.357-.053,1.559,1.559,0,0,1-.343-.138Z" transform="translate(349.115 -453.374)" fill="#5c2c86"/>
        <path id="Path_155" data-name="Path 155" d="M-345.727,464.53a.317.317,0,0,1-.3-.276.233.233,0,0,1,.26-.249l1.072.058a.3.3,0,0,1,.287.272.231.231,0,0,1-.254.244l-1.065-.049Z" transform="translate(349.527 -453.27)" fill="#5c2c86"/>
        <path id="Path_156" data-name="Path 156" d="M-343.811,466.024a.23.23,0,0,1-.248.241.287.287,0,0,1-.281-.256l-.088-1.355a.232.232,0,0,1,.254-.245.3.3,0,0,1,.284.27l.079,1.344Z" transform="translate(349.316 -453.324)" fill="#5c2c86"/>
        <path id="Path_157" data-name="Path 157" d="M-344.5,464.589a.307.307,0,0,1-.289-.272.231.231,0,0,1,.256-.245.637.637,0,0,1,.406.178h0a.587.587,0,0,1,.186.385.231.231,0,0,1-.253.243.3.3,0,0,1-.285-.268.019.019,0,0,0-.007-.015h0a.022.022,0,0,0-.016-.006Z" transform="translate(349.363 -453.279)" fill="#5c2c86"/>
        <path id="Path_158" data-name="Path 158" d="M-345.8,465.944a.276.276,0,0,1,.194.326.255.255,0,0,1-.335.148l-1.79-.594a.293.293,0,0,1-.212-.339.263.263,0,0,1,.352-.15l1.791.609Z" transform="translate(349.782 -453.444)" fill="#5c2c86"/>
        <path id="Path_159" data-name="Path 159" d="M-346.181,464.014a.319.319,0,0,1,.363.188.229.229,0,0,1-.154.318c-.09.023-.18.047-.266.076a1.755,1.755,0,0,0-.268.115,2.782,2.782,0,0,0-.3.187,3.749,3.749,0,0,0-.312.246,2.222,2.222,0,0,0-.221.222,2,2,0,0,0-.179.245,3.074,3.074,0,0,0-.181.326l-.01.018a2.508,2.508,0,0,0-.119.3,3.329,3.329,0,0,0-.119.646h0a.253.253,0,0,1-.314.2.3.3,0,0,1-.261-.3h0a3.582,3.582,0,0,1,.136-.737,2.851,2.851,0,0,1,.14-.352l.009-.02a3.639,3.639,0,0,1,.207-.374,2.432,2.432,0,0,1,.219-.3,2.542,2.542,0,0,1,.269-.27,4.2,4.2,0,0,1,.355-.278,3.207,3.207,0,0,1,.355-.22,2.307,2.307,0,0,1,.348-.147c.109-.036.206-.061.3-.085Z" transform="translate(349.857 -453.27)" fill="#5c2c86"/>
        <path id="Path_160" data-name="Path 160" d="M-341.389,458.6a.623.623,0,0,1,.529.591.446.446,0,0,1-.5.476.622.622,0,0,1-.536-.587.446.446,0,0,1,.5-.481Zm-2.787,6.52a.462.462,0,0,0,.495-.481.574.574,0,0,0-.556-.515.461.461,0,0,0-.5.485.574.574,0,0,0,.564.511Zm-.694-11.213a.792.792,0,0,1,.623.706.459.459,0,0,1-.548.508.791.791,0,0,1-.632-.7.459.459,0,0,1,.556-.513Zm3.542,6.653a.585.585,0,0,1,.519.556.447.447,0,0,1-.487.471.583.583,0,0,1-.526-.552.447.447,0,0,1,.494-.476Z" transform="translate(349.448 -451.934)" fill="#5c2c86" fill-rule="evenodd"/>
      </g>
      <path id="Path_161" data-name="Path 161" d="M-152.121,446.82c-.6,1.769-10.262-3.424-16.98.089-11.963,6.255-12.544,39.042,11.713,123.348a.158.158,0,0,1,0,.112.152.152,0,0,1-.036.055,105.811,105.811,0,0,1-34.892,22.636c-43.6,17.12-84.443-1.565-93.49-5.972a.33.33,0,0,1-.184-.109c-.127-.161-.024-.431-.017-.467a258.725,258.725,0,0,0,4.749-58.332q-.073-2.195-.182-4.365v-.009c-.026-.538-.052-.868-.052-.868-.312-3.844-.876-6.794-1.692-14.144-.078-.7-.165-1.449-.243-2.239,0-5.814-.26-11.09-.668-15.9-1.822-20.947-6.7-33.026-6.7-41.937a16.487,16.487,0,0,1,1.44-7.124,14.46,14.46,0,0,1,2.43-3.636c4.052-4.46,12.244-8.235,28.843-8.564a112.5,112.5,0,0,1,39.447-6.282C-181.494,423.967-151.037,443.631-152.121,446.82Z" transform="translate(-12.016 -13.959)" fill="#973392"/>
      <path id="Path_162" data-name="Path 162" d="M-213.7,415.6c-3.349,6.768-7.514,12.209-11.836,15.662-3.636,2.907-7.384,4.417-10.829,4.113a1,1,0,0,1-.226-.026,6.506,6.506,0,0,1-.7-.1,9.442,9.442,0,0,1-2.247-.72c-.156-.069-.3-.139-.451-.208a18.349,18.349,0,0,1-4.434-3.41.119.119,0,0,1-.035-.026c-.911-.911-1.831-1.909-2.811-2.959a46.828,46.828,0,0,1-10.56-19.489c-2.664-9.493-5.684-20.036,0-29.069,6.959-11.063,23.446-15.767,29.85-10.656,3.454,2.759,3.046,7.089,4.425,15.862A109.97,109.97,0,0,0-213.7,415.6Z" transform="translate(-15.949 -6.495)" fill="#fab68c"/>
      <path id="Path_163" data-name="Path 163" d="M-221.061,395.238a64.336,64.336,0,0,1-8.576,21.7c-3.8,6.033-7.525,11.761-13.124,11.931-3.631.11-6.594-2.161-8.273-3.757l22.3-23.014Z" transform="translate(-17.275 -10.276)" fill="#f69866" opacity="0.41"/>
      <path id="Path_164" data-name="Path 164" d="M-213.652,361.725c-.171-1.608-.591-5.553-3.037-6.508-1.89-.738-4.259.6-6.073,2.444-1.253-11.3-5.969-21.844-16.248-26.916-14.476-7.144-34.4-.676-43.968,12.213-5.861,7.893-6.461,16.339-6.717,20.763-1.3,22.336,12.749,51.995,31.754,52.518,14.983.412,27.178-17.443,31.755-29.923a63.345,63.345,0,0,0,3.225-13.6,5.281,5.281,0,0,0,4.1,1.591C-215.025,373.717-213.116,366.744-213.652,361.725Z" transform="translate(-12.15 -1.354)" fill="#fab68c"/>
      <path id="Path_165" data-name="Path 165" d="M-329.987,522.725c.059-.212,1.86-.005,3.087.365,5.662,1.711,8,9.633,7.781,9.752-.188.1-2.023-5.906-7.557-8.605C-328.135,523.526-330.049,522.948-329.987,522.725Z" transform="translate(-6.831 -27.128)" fill="#f69866" opacity="0.58"/>
      <path id="Path_166" data-name="Path 166" d="M-352.591,472.45A3.057,3.057,0,0,0-354,471.256c-2.48-1.3-4.742-.811-8.8-1.311-2.838-.35-4.793-.618-5.73-2.088-.874-1.368-.272-2.79-.77-2.985-.633-.247-2.124,3.866-5.214,7.546a4.186,4.186,0,0,0-.786,1.206c-.748,1.85.338,3.648,1.274,5.87,1.6,3.8.6,3.673,2.314,7.815,1.208,2.921,1.943,4.41,3.585,5.607,2.476,1.806,5.357,1.566,8.129,1.335,1.751-.146,8.352-.7,9.369-4.045a7.253,7.253,0,0,0-.33-3.836c-.545-1.5-1.258-1.843-1.374-3.182-.095-1.1.352-1.216.61-2.9a24.471,24.471,0,0,0-.121-4.088C-352.017,473.688-352.208,473.134-352.591,472.45Z" transform="translate(-0.804 -19.485)" fill="#fab68c"/>
      <path id="Path_167" data-name="Path 167" d="M-244.842,414.7c-3.558,5.206-14.352,6.334-20.964,1.345-2.143-1.614-4.122-4.018-4.495-5.64a1.213,1.213,0,0,1-.052-.243,1.39,1.39,0,0,1,.139-.92c.286-.486.894-.538,1.961-.46.694.052,1.571.156,2.69.252.894.061,1.926.113,3.132.113,1.3,0,2.551-.061,3.827-.174.928-.078,1.874-.182,2.846-.312h.026c1.406-.174,2.89-.4,4.495-.633,4.5-.668,6.022-1.171,6.968-.495a1.484,1.484,0,0,1,.226.182,2.053,2.053,0,0,1,.347.469,2.958,2.958,0,0,1,.338,1.076A8.408,8.408,0,0,1-244.842,414.7Z" transform="translate(-14.716 -11.859)" fill="#fff"/>
      <path id="Path_168" data-name="Path 168" d="M-161.788,438.188c-7.927,3.524-7.729,18.881-7.759,24.162-.119,21,10.6,42.63,18.859,42.155,2.7-.156,2.606-2.535,8.649-5.681,4.7-2.445,6.822-2,10.709-3.073a26.591,26.591,0,0,0,5-1.908c3.958-2.006,3.059-2.891,7.911-6.132.777-.519,1.824-1.18,1.921-2.221.107-1.144-.99-2.1-1.375-2.451-3.445-3.1-12.587-13.561-14.687-22.045-.154-.626-.245-1.177-.7-3.04a86.008,86.008,0,0,0-2.4-8.892c-2.561-5.658-9.051-7.969-12.912-9.345C-153.179,438.078-157.837,436.431-161.788,438.188Z" transform="translate(-28.053 -15.857)" fill="#973392"/>
      <path id="Path_169" data-name="Path 169" d="M-281.4,531.517c-.036,0-.328-2.963-.657-5.757q-.5-4.232-1.035-8.387a7.04,7.04,0,0,1-1.479,3.8,7.485,7.485,0,0,1-5.53,2.638,30.962,30.962,0,0,0,6.716-13.093c1.145-4.985.768-9.515.419-13.722-.433-5.216-1.384-9.014-1.193-9.056s1.775,4.235,2.675,9.527c2.219,13.045-.38,27.854.024,33.046C-281.448,530.624-281.376,531.515-281.4,531.517Z" transform="translate(-12.107 -22.537)" fill="#8b2b8b"/>
      <path id="Path_170" data-name="Path 170" d="M-165.091,499.264a72.336,72.336,0,0,0,6.849,7.82l.431,2.984c-.81-.915-2-2.261-3.415-3.908-3.079-3.575-4.64-5.394-5.695-6.942-2.809-4.121-4.228-8.263-3.959-8.406S-168.776,494.39-165.091,499.264Z" transform="translate(-27.873 -22.917)" fill="#8b2b8b"/>
      <ellipse id="Ellipse_18" data-name="Ellipse 18" cx="2.256" cy="3.254" rx="2.256" ry="3.254" transform="translate(-291.597 372.899)" fill="#575757"/>
      <ellipse id="Ellipse_19" data-name="Ellipse 19" cx="2.256" cy="3.254" rx="2.256" ry="3.254" transform="translate(-267.541 372.899)" fill="#575757"/>
      <path id="Path_171" data-name="Path 171" d="M-254.049,378.225c-.227-.405,2.074-2.853,5.206-3.615,4.973-1.21,9.85,2.361,9.69,2.82-.134.38-3.654-1.584-8.822-.868C-251.622,377.068-253.841,378.6-254.049,378.225Z" transform="translate(-16.874 -7.514)" fill="#575757"/>
      <path id="Path_172" data-name="Path 172" d="M-271.7,379.31c.2-.391-1.46-2.152-3.616-2.495-3.066-.487-5.911,2.089-5.736,2.494.129.3,1.835-.726,4.845-.651C-273.444,378.727-271.873,379.662-271.7,379.31Z" transform="translate(-13.303 -7.831)" fill="#575757"/>
      <path id="Path_173" data-name="Path 173" d="M-263.018,396.625a2.355,2.355,0,0,1,.922,2.359,2.465,2.465,0,0,1-3.389,1.138.949.949,0,0,1-.312-.73c.029-.492.528-.773,1.158-1.258A12.146,12.146,0,0,0-263.018,396.625Z" transform="translate(-15.322 -10.459)" fill="#f16b30"/>
      <path id="Path_174" data-name="Path 174" d="M-262.543,392.648a5.7,5.7,0,0,1-.651,3.4c-.986,1.7-2.567,1.952-2.6,2.82-.027.648.809,1.6,4.845,2.893" transform="translate(-15.322 -9.933)" fill="none" stroke="#f69866" stroke-linecap="round" stroke-linejoin="round" stroke-width="1"/>
      <path id="Path_175" data-name="Path 175" d="M-241.126,409.258a4.006,4.006,0,0,0-1.2-.928,4.784,4.784,0,0,0-2.36-.408c-2.976.035-4.07.616-6.647.746-.772.035-1.545.026-2.169-.009,1.406-.174,2.89-.4,4.495-.633,4.5-.668,6.022-1.171,6.968-.495a1.485,1.485,0,0,1,.226.182,2.053,2.053,0,0,1,.347.469A2.958,2.958,0,0,1-241.126,409.258Z" transform="translate(-16.948 -11.859)" fill="#515252" opacity="0.11"/>
      <path id="Path_176" data-name="Path 176" d="M-265.562,409.266c-.007.081-.787-.015-2.169.2a4.668,4.668,0,0,0-1.685.508,4.268,4.268,0,0,0-.882.669,1,1,0,0,1-.051-.243,1.387,1.387,0,0,1,.133-.919c.294-.486.9-.537,1.964-.463C-267.563,409.067-266.68,409.17-265.562,409.266Z" transform="translate(-14.717 -12.095)" fill="#515252" opacity="0.11"/>
      <path id="Path_177" data-name="Path 177" d="M-242.024,412.7c-.034-.089-2.062.83-5.2,1.512a44.4,44.4,0,0,1-6.02.772,16.631,16.631,0,0,0,6.628-.462A14.978,14.978,0,0,0-242.024,412.7Z" transform="translate(-16.982 -12.585)" fill="#515252" opacity="0.11"/>
      <path id="Path_178" data-name="Path 178" d="M-317.977,554.208c-.512.659-1.059,1.354-1.649,2.091a.094.094,0,0,0-.035.043c-1.874,2.352-4.208,5.2-7.87,6.274a1,1,0,0,1-.182.052c-.121.035-.252.061-.382.1,0,0-.069.017-.182.035a.558.558,0,0,1-.113.035,11.424,11.424,0,0,1-3.61.13c-2.421-.417-5.588-2-9.528-6.334a21.111,21.111,0,0,1,2.152-.252c4.026-.252,4.521,1.571,8.026,1.631,4.816.078,6-3.323,12.478-3.74C-318.558,554.243-318.255,554.225-317.977,554.208Z" transform="translate(-5.305 -31.303)" fill="#f69866" opacity="0.41"/>
      <path id="Path_179" data-name="Path 179" d="M-376.708,474.779" transform="translate(-0.651 -20.797)" fill="#fab68c"/>
      <path id="Path_180" data-name="Path 180" d="M-381.63,495.4" transform="translate(0 -23.524)" fill="#fab68c"/>
      <path id="Path_181" data-name="Path 181" d="M-49.627,604.974c-1.18,2.022-4.113,5.519-6.369,4.851-2.508-.746-1.18-5.779-4.937-12.461a30.357,30.357,0,0,0-3.08-4.495,15.384,15.384,0,0,0-1.892-1.926c-.946-.781-1.822-1.18-2.482-.946-1.241.443-1.978,3.15-1.145,4.6.035.061.069.113.1.165.3.4.607.434,1.119,1.059,1.085,1.336,1.484,3.419.9,3.835-.755.547-3.289-1.683-4.477-2.933a13.146,13.146,0,0,1-3.653-6.543c-.226-1.145-.043-1.215-.286-2.777a20.4,20.4,0,0,0-1.6-5.293c2.516-.573,5.18-1.276,7.974-2.143,2.317-.72,4.495-1.484,6.534-2.256.46.451.85.781,1.119,1.007,1.466,1.189,2.343,1.458,3.341,2.655.191.226.347.434.486.633.642.92.92,1.675,2.829,4.495,1.111,1.64,1.692,2.447,2.369,3.306,1.041,1.319,1.735,2.013,2.49,3.063a18.011,18.011,0,0,1,1.189,1.9A11.18,11.18,0,0,1-49.627,604.974Z" transform="translate(-40.239 -34.412)" fill="#fab68c"/>
      <path id="Path_182" data-name="Path 182" d="M-68.3,597.25c.026.035.052.061.078.1A.24.24,0,0,1-68.3,597.25Z" transform="translate(-41.446 -36.997)" fill="#f69866" opacity="0.41"/>
      <path id="Path_183" data-name="Path 183" d="M-62.957,594.607a15.384,15.384,0,0,0-1.892-1.926c-.946-.781-1.822-1.18-2.482-.946-1.241.443-1.978,3.15-1.145,4.6a.123.123,0,0,1,.017.052,3.763,3.763,0,0,1-.434-4.434,2.809,2.809,0,0,1,2.768-1.033c.659.182,1.076.712,1.892,1.753A14.325,14.325,0,0,1-62.957,594.607Z" transform="translate(-41.296 -36.15)" fill="#f69866" opacity="0.41"/>
      <path id="Path_184" data-name="Path 184" d="M-223,441.057c-3.636,2.907-7.384,4.417-10.829,4.113a1,1,0,0,1-.226-.026,12.222,12.222,0,0,1-2.95-.816c-.156-.069-.3-.139-.451-.208a18.349,18.349,0,0,1-4.434-3.41,16.264,16.264,0,0,0,8.964,3.237A16.316,16.316,0,0,0-223,441.057Z" transform="translate(-18.484 -16.29)" fill="#f69866" opacity="0.41"/>
      <path id="Path_185" data-name="Path 185" d="M-288.7,370.523a31.867,31.867,0,0,1,14.278-6.91c5.448-1.02,7.607.259,17.066-.578a50.1,50.1,0,0,0,11.714-1.952,37.727,37.727,0,0,0,14.461-8.75l-15.257,2.1-38.108,7.159Q-286.628,366.056-288.7,370.523Z" transform="translate(-12.292 -4.6)" fill="#3f3f3f" opacity="0.08"/>
      <path id="Path_186" data-name="Path 186" d="M-235.125,350.047c-11.138,5.5-20.128,6.778-26.329,6.91-6.355.134-11.13-.561-17.548,1.84a32.742,32.742,0,0,0-13.464,9.834A24.039,24.039,0,0,1-297.71,358.4c-1.847-8.089,1.347-14.732,3.016-18.2,4.476-9.31,13.816-18.568,26.554-21.476,3.277-.748,25.546-5.378,38.4,11.064,8.778,11.23,9.4,27.475,1.41,40.458a68.455,68.455,0,0,1-5.532-14.317C-234.4,353.878-234.81,351.912-235.125,350.047Z" transform="translate(-11.027)" fill="#575757"/>
      <path id="Path_187" data-name="Path 187" d="M-225.5,352.928a20.861,20.861,0,0,0,3.073-8.822,23.443,23.443,0,0,0,.144-4.772,43.565,43.565,0,0,1-.723,5.315A52.511,52.511,0,0,1-225.5,352.928Z" transform="translate(-20.651 -2.881)" fill="#3f3f3f" opacity="0.32"/>
    </g>
  </g>
</svg>
